<?xml version="1.0" encoding="utf-8" ?>
<svg xmlns="http://www.w3.org/2000/svg" xmlns:xlink="http://www.w3.org/1999/xlink" width="24" height="24" viewBox="0 0 24 24">
	<defs>
		<clipPath id="clipPath8894754679">
			<path d="M0 0L24 0L24 24L0 24L0 0Z" fill-rule="nonzero" transform="matrix(1 0 0 1 0 0)"/>
		</clipPath>
	</defs>
	<g clip-path="url(#clipPath8894754679)">
		<path d="M21.0348 10.0502L21.0348 9.13022C21.0348 8.57794 20.587 8.13022 20.0348 8.13022C19.4825 8.13022 19.0348 8.57794 19.0348 9.13022L19.0348 10.0502Q19.0324 14.1509 15.9357 16.84Q12.839 19.529 8.77795 18.9563Q4.71686 18.3836 2.48462 14.943Q0.252383 11.5024 1.38436 7.56046Q2.51633 3.61849 6.23393 1.88646Q9.95154 0.154428 13.6978 1.82365C14.2022 2.04843 14.7934 1.82169 15.0182 1.31722C15.243 0.812751 15.0162 0.221569 14.5118 -0.00320911Q9.93304 -2.04337 5.38931 0.0735583Q0.845569 2.19048 -0.537955 7.00845Q-1.92148 11.8264 0.806813 16.0316Q3.5351 20.2367 8.49866 20.9367Q13.4622 21.6367 17.2471 18.3501Q21.0319 15.0635 21.0348 10.0502Z" fill-rule="evenodd" transform="matrix(1 0 0 1 1.96524 1.94978)" fill="rgb(37, 99, 235)"/>
		<path d="M12.2925 -0.706753C12.6829 -1.09747 13.316 -1.09779 13.7068 -0.70746C14.0975 -0.317134 14.0978 0.316037 13.7075 0.706753L3.70746 10.7168Q3.63785 10.7864 3.55599 10.8412Q3.47412 10.896 3.38314 10.9337Q3.29217 10.9714 3.19558 10.9907Q3.09899 11.0099 3.0005 11.01Q2.90201 11.01 2.8054 10.9909Q2.70879 10.9717 2.61778 10.9341Q2.52677 10.8964 2.44485 10.8417Q2.36293 10.7871 2.29325 10.7175L-0.707107 7.71711C-1.09763 7.32659 -1.09763 6.69341 -0.707107 6.30289C-0.316586 5.91237 0.316586 5.91237 0.707107 6.30289L2.99965 8.59543L12.2925 -0.706753Z" fill-rule="evenodd" transform="matrix(1 0 0 1 9 4)" fill="rgb(37, 99, 235)"/>
	</g>
</svg>
