<?xml version="1.0" encoding="utf-8" ?>
<svg xmlns="http://www.w3.org/2000/svg" xmlns:xlink="http://www.w3.org/1999/xlink" width="24" height="24" viewBox="0 0 24 24">
	<defs>
		<clipPath id="clipPath6600457330">
			<path d="M0 0L24 0L24 24L0 24L0 0Z" fill-rule="nonzero" transform="matrix(1 0 0 1 0 0)"/>
		</clipPath>
	</defs>
	<g clip-path="url(#clipPath6600457330)">
		<path d="M0 -1C-0.55228 -1 -1 -0.55228 -1 0L-1 22C-1 22.5523 -0.55228 23 0 23C0.55228 23 1 22.5523 1 22L1 0C1 -0.55228 0.55228 -1 0 -1Z" fill-rule="evenodd" transform="matrix(1 0 0 1 12 1)" fill="rgb(37, 99, 235)"/>
		<path d="M3.5 1L11 1C11.5523 1 12 0.55228 12 0C12 -0.55228 11.5523 -1 11 -1L3.5 -1Q1.63604 -1 0.31802 0.31802Q-1 1.63604 -0.999999 3.5Q-1 5.36396 0.31802 6.68198Q1.63604 8 3.5 8L8.5 8Q9.53553 8 10.2678 8.73223Q11 9.46447 11 10.5Q11 11.5355 10.2678 12.2678Q9.53553 13 8.5 13L0 13C-0.55228 13 -1 13.4477 -1 14C-1 14.5523 -0.55228 15 0 15L8.5 15Q10.364 15 11.682 13.682Q13 12.364 13 10.5Q13 8.63604 11.682 7.31802Q10.364 6 8.5 6L3.5 6Q2.46447 6 1.73223 5.26777Q1 4.53553 1 3.5Q1 2.46447 1.73223 1.73223Q2.46447 1 3.5 1Z" fill-rule="evenodd" transform="matrix(1 0 0 1 6 5)" fill="rgb(37, 99, 235)"/>
	</g>
</svg>
