<svg width="100" height="100" viewBox="0 0 100 100" fill="none" xmlns="http://www.w3.org/2000/svg">
  <!-- 盾牌外形 -->
  <path d="M50 10 L20 25 L20 50 Q20 75 50 90 Q80 75 80 50 L80 25 Z" fill="url(#shieldGradient)" stroke="#1E40AF" stroke-width="2"/>
  
  <!-- 锁图标 -->
  <g transform="translate(35, 30)">
    <!-- 锁体 -->
    <rect x="5" y="15" width="20" height="25" rx="3" fill="white"/>
    <!-- 锁环 -->
    <path d="M10 15 L10 10 Q10 5 15 5 Q20 5 20 10 L20 15" stroke="white" stroke-width="2" fill="none"/>
    <!-- 锁孔 -->
    <circle cx="15" cy="25" r="2" fill="#2563EB"/>
    <rect x="14" y="27" width="2" height="6" fill="#2563EB"/>
  </g>
  
  <!-- 数据流动效果 -->
  <g opacity="0.6">
    <circle cx="25" cy="60" r="1.5" fill="white">
      <animate attributeName="opacity" values="0;1;0" dur="2s" repeatCount="indefinite" begin="0s"/>
    </circle>
    <circle cx="35" cy="65" r="1.5" fill="white">
      <animate attributeName="opacity" values="0;1;0" dur="2s" repeatCount="indefinite" begin="0.5s"/>
    </circle>
    <circle cx="45" cy="70" r="1.5" fill="white">
      <animate attributeName="opacity" values="0;1;0" dur="2s" repeatCount="indefinite" begin="1s"/>
    </circle>
    <circle cx="55" cy="65" r="1.5" fill="white">
      <animate attributeName="opacity" values="0;1;0" dur="2s" repeatCount="indefinite" begin="1.5s"/>
    </circle>
    <circle cx="65" cy="60" r="1.5" fill="white">
      <animate attributeName="opacity" values="0;1;0" dur="2s" repeatCount="indefinite" begin="2s"/>
    </circle>
    <circle cx="75" cy="65" r="1.5" fill="white">
      <animate attributeName="opacity" values="0;1;0" dur="2s" repeatCount="indefinite" begin="2.5s"/>
    </circle>
  </g>
  
  <!-- 渐变定义 -->
  <defs>
    <linearGradient id="shieldGradient" x1="0%" y1="0%" x2="100%" y2="100%">
      <stop offset="0%" style="stop-color:#2563EB;stop-opacity:0.8" />
      <stop offset="100%" style="stop-color:#1E40AF;stop-opacity:0.9" />
    </linearGradient>
  </defs>
</svg>