<?xml version="1.0" encoding="utf-8" ?>
<svg xmlns="http://www.w3.org/2000/svg" xmlns:xlink="http://www.w3.org/1999/xlink" width="24" height="24" viewBox="0 0 24 24">
	<defs>
		<clipPath id="clipPath1460113131">
			<path d="M0 0L24 0L24 24L0 24L0 0Z" fill-rule="nonzero" transform="matrix(1 0 0 1 0 0)"/>
		</clipPath>
	</defs>
	<g clip-path="url(#clipPath1460113131)">
		<path d="M17.0093 7.00999L15.7493 7.00999Q15.6668 7.00999 15.5853 6.99645Q15.5039 6.98291 15.4257 6.95619Q15.3476 6.92947 15.2749 6.8903Q15.2022 6.85113 15.137 6.80056Q15.0717 6.75 15.0156 6.68942Q14.9595 6.62883 14.9141 6.55986Q14.8687 6.4909 14.8352 6.41542Q14.8017 6.33994 14.7811 6.25999Q14.0989 3.61787 11.8085 2.13454Q9.51808 0.651201 6.82804 1.10937Q4.138 1.56754 2.46777 3.72546Q0.797551 5.88337 1.02847 8.60236Q1.25939 11.3213 3.26959 13.1667Q5.2798 15.012 8.00858 15.01L17.0093 15.01Q18.6662 15.01 19.8378 13.8384Q21.0093 12.6668 21.0093 11.01Q21.0093 9.35314 19.8378 8.18157Q18.6662 7.00999 17.0093 7.00999ZM17.0093 5.00999Q19.4946 5.00999 21.252 6.76735Q23.0093 8.52471 23.0093 11.01Q23.0093 13.4953 21.252 15.2526Q19.4946 17.01 17.0093 17.01L8.01007 17.01Q4.50165 17.0126 1.91709 14.64Q-0.667464 12.2675 -0.964358 8.7716Q-1.26125 5.27576 0.886178 2.5013Q3.03361 -0.273157 6.49223 -0.862235Q9.95085 -1.45131 12.8957 0.455832Q15.8405 2.36297 16.7176 5.75999L15.7493 6.00999L15.7493 5.00999L17.0093 5.00999Z" fill-rule="nonzero" transform="matrix(1 0 0 1 0.990675 3.99001)" fill="rgb(37, 99, 235)"/>
	</g>
</svg>
