<?xml version="1.0" encoding="utf-8" ?>
<svg xmlns="http://www.w3.org/2000/svg" xmlns:xlink="http://www.w3.org/1999/xlink" width="24" height="24" viewBox="0 0 24 24">
	<defs>
		<clipPath id="clipPath4572641791">
			<path d="M0 0L24 0L24 24L0 24L0 0Z" fill-rule="nonzero" transform="matrix(1 0 0 1 0 0)"/>
		</clipPath>
	</defs>
	<g clip-path="url(#clipPath4572641791)">
		<rect width="20" height="8" rx="2" ry="2" stroke-width="2" stroke-linejoin="round" transform="matrix(1 0 0 1 2 2)" stroke="rgb(37, 99, 235)" fill="transparent"/>
		<rect width="20" height="8" rx="2" ry="2" stroke-width="2" stroke-linejoin="round" transform="matrix(1 0 0 1 2 14)" stroke="rgb(37, 99, 235)" fill="transparent"/>
		<path d="M0 1C-0.55228 1 -1 0.55228 -1 0C-1 -0.55228 -0.55228 -1 0 -1L0.0100002 -1C0.56228 -1 1.01 -0.55228 1.01 0C1.01 0.55228 0.56228 1 0.0100002 1L0 1Z" fill-rule="evenodd" transform="matrix(1 0 0 1 6 6)" fill="rgb(37, 99, 235)"/>
		<path d="M0 1C-0.55228 1 -1 0.55228 -1 0C-1 -0.55228 -0.55228 -1 0 -1L0.0100002 -1C0.56228 -1 1.01 -0.55228 1.01 0C1.01 0.55228 0.56228 1 0.0100002 1L0 1Z" fill-rule="evenodd" transform="matrix(1 0 0 1 6 18)" fill="rgb(37, 99, 235)"/>
	</g>
</svg>
