<?xml version="1.0" encoding="utf-8" ?>
<svg xmlns="http://www.w3.org/2000/svg" xmlns:xlink="http://www.w3.org/1999/xlink" width="24" height="24" viewBox="0 0 24 24">
	<defs>
		<clipPath id="clipPath1285270166">
			<path d="M0 0L24 0L24 24L0 24L0 0Z" fill-rule="nonzero" transform="matrix(1 0 0 1 0 0)"/>
		</clipPath>
	</defs>
	<g clip-path="url(#clipPath1285270166)">
		<path d="M-1 0C-1 0.55228 -0.55228 1 0 1L5 1L5 6C5 6.55228 5.44772 7 6 7C6.55228 7 7 6.55228 7 6L7 0Q7 -0.0984914 6.98078 -0.19509Q6.96157 -0.291689 6.92388 -0.382683Q6.88619 -0.473678 6.83147 -0.55557Q6.77675 -0.637463 6.70711 -0.707107Q6.63746 -0.776751 6.55557 -0.831469Q6.47368 -0.886188 6.38268 -0.923879Q6.29169 -0.961571 6.19509 -0.980785Q6.09849 -1 6 -1L0 -1C-0.55228 -1 -1 -0.55228 -1 0Z" fill-rule="evenodd" transform="matrix(1 0 0 1 15 3)" fill="rgb(37, 99, 235)"/>
		<path d="M0 -1C-0.55228 -1 -1 -0.55228 -1 0L-1 6Q-1 6.09849 -0.980785 6.19509Q-0.96157 6.29169 -0.923879 6.38268Q-0.886188 6.47368 -0.83147 6.55557Q-0.776751 6.63746 -0.707107 6.70711Q-0.637463 6.77675 -0.55557 6.83147Q-0.473678 6.88619 -0.382683 6.92388Q-0.291689 6.96157 -0.19509 6.98078Q-0.0984914 7 0 7L6 7C6.55228 7 7 6.55228 7 6C7 5.44772 6.55228 5 6 5L1 5L1 0C1 -0.55228 0.55228 -1 0 -1Z" fill-rule="evenodd" transform="matrix(1 0 0 1 3 15)" fill="rgb(37, 99, 235)"/>
		<path d="M7.70711 -0.707107C7.31659 -1.09763 6.68341 -1.09763 6.29289 -0.707107L-0.707107 6.29289C-1.09763 6.68341 -1.09763 7.31659 -0.707107 7.70711C-0.316586 8.09763 0.316586 8.09763 0.707107 7.70711L7.70711 0.707107C8.09763 0.316586 8.09763 -0.316586 7.70711 -0.707107Z" fill-rule="evenodd" transform="matrix(1 0 0 1 14 3)" fill="rgb(37, 99, 235)"/>
		<path d="M7.70711 -0.707107C7.31659 -1.09763 6.68341 -1.09763 6.29289 -0.707107L-0.707107 6.29289C-1.09763 6.68341 -1.09763 7.31659 -0.707107 7.70711C-0.316586 8.09763 0.316586 8.09763 0.707107 7.70711L7.70711 0.707107C8.09763 0.316586 8.09763 -0.316586 7.70711 -0.707107Z" fill-rule="evenodd" transform="matrix(1 0 0 1 3 14)" fill="rgb(37, 99, 235)"/>
	</g>
</svg>
