<svg width="1200" height="600" viewBox="0 0 1200 600" fill="none" xmlns="http://www.w3.org/2000/svg">
  <!-- 背景渐变 -->
  <rect width="1200" height="600" fill="url(#bgGradient)"/>
  
  <!-- 数据中心图形 -->
  <g transform="translate(100, 100)">
    <!-- 服务器机架群 -->
    <g opacity="0.3">
      <rect x="50" y="50" width="80" height="200" rx="8" fill="white"/>
      <rect x="150" y="80" width="80" height="170" rx="8" fill="white"/>
      <rect x="250" y="60" width="80" height="190" rx="8" fill="white"/>
      <rect x="350" y="70" width="80" height="180" rx="8" fill="white"/>
    </g>
    
    <!-- 数据流动线条 -->
    <g stroke="white" stroke-width="2" opacity="0.4">
      <path d="M90 150 Q200 100 310 150" fill="none">
        <animate attributeName="stroke-dasharray" values="0,100;50,50;100,0" dur="3s" repeatCount="indefinite"/>
      </path>
      <path d="M190 180 Q300 130 410 180" fill="none">
        <animate attributeName="stroke-dasharray" values="0,100;50,50;100,0" dur="3s" repeatCount="indefinite" begin="1s"/>
      </path>
      <path d="M290 200 Q400 150 510 200" fill="none">
        <animate attributeName="stroke-dasharray" values="0,100;50,50;100,0" dur="3s" repeatCount="indefinite" begin="2s"/>
      </path>
    </g>
  </g>
  
  <!-- 云存储图标 -->
  <g transform="translate(800, 200)" opacity="0.2">
    <path d="M50 100 Q30 80 50 60 Q70 40 100 60 Q120 40 150 60 Q170 80 150 100 Z" fill="white"/>
    <circle cx="75" cy="70" r="3" fill="#2563EB"/>
    <circle cx="100" cy="70" r="3" fill="#1E40AF"/>
    <circle cx="125" cy="70" r="3" fill="#2563EB"/>
  </g>
  
  <!-- 网络连接图形 -->
  <g transform="translate(600, 350)" opacity="0.3">
    <circle cx="50" cy="50" r="20" fill="white"/>
    <circle cx="150" cy="30" r="15" fill="white"/>
    <circle cx="120" cy="80" r="18" fill="white"/>
    <line x1="70" y1="50" x2="135" y2="30" stroke="white" stroke-width="2"/>
    <line x1="70" y1="60" x2="102" y2="80" stroke="white" stroke-width="2"/>
    <line x1="135" y1="40" x2="120" y2="62" stroke="white" stroke-width="2"/>
  </g>
  
  <!-- 渐变定义 -->
  <defs>
    <linearGradient id="bgGradient" x1="0%" y1="0%" x2="100%" y2="100%">
      <stop offset="0%" style="stop-color:#2563EB;stop-opacity:1" />
      <stop offset="50%" style="stop-color:#1E40AF;stop-opacity:1" />
      <stop offset="100%" style="stop-color:#1E3A8A;stop-opacity:1" />
    </linearGradient>
  </defs>
</svg>