<?xml version="1.0" encoding="utf-8" ?>
<svg xmlns="http://www.w3.org/2000/svg" xmlns:xlink="http://www.w3.org/1999/xlink" width="24" height="24" viewBox="0 0 24 24">
	<defs>
		<clipPath id="clipPath4313897556">
			<path d="M0 0L24 0L24 24L0 24L0 0Z" fill-rule="nonzero" transform="matrix(1 0 0 1 0 0)"/>
		</clipPath>
	</defs>
	<g clip-path="url(#clipPath4313897556)">
		<path d="M15 4L15 6C15 6.55228 15.4477 7 16 7C16.5523 7 17 6.55228 17 6L17 4Q17 1.92893 15.5355 0.464464Q14.0711 -1 12 -1L4 -1Q1.92893 -1 0.464466 0.464467Q-1 1.92893 -1 4L-1 6C-1 6.55228 -0.55228 7 0 7C0.55228 7 1 6.55228 1 6L1 4Q1 2.75736 1.87868 1.87868Q2.75736 1 4 1L12 1Q13.2426 1 14.1213 1.87868Q15 2.75736 15 4Z" fill-rule="evenodd" transform="matrix(1 0 0 1 1 15)" fill="rgb(37, 99, 235)"/>
		<circle cx="4" cy="4" r="4" stroke-width="2" transform="matrix(1 0 0 1 5 3)" stroke="rgb(37, 99, 235)" fill="transparent"/>
		<path d="M-0.968246 -0.249999C-1.10632 0.284743 -0.784742 0.830176 -0.249999 0.968246Q0.74281 1.22459 1.37102 2.03498Q1.99923 2.84537 2 3.87L2 5.87C2 6.42228 2.44772 6.87 3 6.87C3.55228 6.87 4 6.42228 4 5.87L4 3.87Q3.99872 2.1603 2.9517 0.809645Q1.90468 -0.541009 0.25 -0.968246C-0.284743 -1.10632 -0.830176 -0.784742 -0.968246 -0.249999Z" fill-rule="evenodd" transform="matrix(1 0 0 1 20 15.13)" fill="rgb(37, 99, 235)"/>
		<path d="M-0.96875 -0.248039C-1.10574 0.286982 -0.78306 0.831763 -0.248039 0.96875Q0.747536 1.22366 1.37769 2.03548Q2.00784 2.84731 2.00784 3.875Q2.00784 4.90269 1.37769 5.71452Q0.747535 6.52634 -0.24804 6.78125C-0.783062 6.91824 -1.10574 7.46302 -0.96875 7.99804C-0.831762 8.53306 -0.28698 8.85574 0.248041 8.71875Q1.90733 8.2939 2.95759 6.94086Q4.00784 5.58782 4.00784 3.875Q4.00784 2.16218 2.95759 0.809138Q1.90733 -0.543903 0.248039 -0.96875C-0.286982 -1.10574 -0.831763 -0.78306 -0.96875 -0.248039Z" fill-rule="evenodd" transform="matrix(1 0 0 1 16 3.13)" fill="rgb(37, 99, 235)"/>
	</g>
</svg>
