<?xml version="1.0" encoding="utf-8" ?>
<svg xmlns="http://www.w3.org/2000/svg" xmlns:xlink="http://www.w3.org/1999/xlink" width="24" height="24" viewBox="0 0 24 24">
	<defs>
		<clipPath id="clipPath5074044039">
			<path d="M0 0L24 0L24 24L0 24L0 0Z" fill-rule="nonzero" transform="matrix(1 0 0 1 0 0)"/>
		</clipPath>
	</defs>
	<g clip-path="url(#clipPath5074044039)">
		<rect width="18" height="11" rx="2" ry="2" stroke-width="2" stroke-linejoin="round" transform="matrix(1 0 0 1 3 11)" stroke="rgb(37, 99, 235)" fill="transparent"/>
		<path d="M-1 5L-1 9C-1 9.55228 -0.55228 10 0 10C0.55228 10 1 9.55228 1 9L1 5Q1 3.34315 2.17157 2.17157Q3.34315 1 5 1Q6.65686 1 7.82843 2.17157Q9 3.34315 9 5L9 9C9 9.55228 9.44772 10 10 10C10.5523 10 11 9.55228 11 9L11 5Q11 2.51472 9.24264 0.757359Q7.48528 -1 5 -1Q2.51472 -1 0.757359 0.757359Q-1 2.51472 -1 5Z" fill-rule="evenodd" transform="matrix(1 0 0 1 7 2)" fill="rgb(37, 99, 235)"/>
	</g>
</svg>
