<?xml version="1.0" encoding="utf-8" ?>
<svg xmlns="http://www.w3.org/2000/svg" xmlns:xlink="http://www.w3.org/1999/xlink" width="24" height="24" viewBox="0 0 24 24">
	<defs>
		<clipPath id="clipPath8724058989">
			<path d="M0 0L24 0L24 24L0 24L0 0Z" fill-rule="nonzero" transform="matrix(1 0 0 1 0 0)"/>
		</clipPath>
	</defs>
	<g clip-path="url(#clipPath8724058989)">
		<ellipse cx="9" cy="3" rx="9" ry="3" stroke-width="2" transform="matrix(1 0 0 1 3 2)" stroke="rgb(37, 99, 235)" fill="transparent"/>
		<path d="M0 -1C-0.55228 -1 -1 -0.55228 -1 0Q-1 1.09538 0.0820622 1.95282Q0.899786 2.6008 2.30833 3.07104Q3.63808 3.51497 5.34516 3.75495Q7.0883 4 9 4Q10.9117 4 12.6548 3.75495Q14.3619 3.51497 15.6917 3.07104Q17.1002 2.6008 17.9179 1.95282Q19 1.09538 19 0C19 -0.55228 18.5523 -1 18 -1C17.4477 -1 17 -0.55228 17 0Q17 0.0267485 16.9644 0.0851279Q16.8802 0.223345 16.6758 0.385302Q16.1335 0.815012 15.0583 1.17396Q13.9022 1.55993 12.3764 1.77442Q10.7718 2 9 2Q7.22819 2 5.62359 1.77442Q4.09778 1.55993 2.94167 1.17396Q1.86647 0.815012 1.32419 0.385302Q1.1198 0.223345 1.03558 0.0851279Q1 0.0267493 1 0C1 -0.55228 0.55228 -1 0 -1Z" fill-rule="evenodd" transform="matrix(1 0 0 1 3 12)" fill="rgb(37, 99, 235)"/>
		<path d="M0 -1C-0.55228 -1 -1 -0.55228 -1 0L-1 14Q-1 15.0954 0.0820622 15.9528Q0.899784 16.6008 2.30833 17.071Q3.63807 17.515 5.34516 17.7549Q7.0883 18 9 18Q10.9117 18 12.6548 17.7549Q14.3619 17.515 15.6917 17.071Q17.1002 16.6008 17.9179 15.9528Q19 15.0954 19 14L19 0C19 -0.55228 18.5523 -1 18 -1C17.4477 -1 17 -0.55228 17 0L17 14Q17 14.0267 16.9644 14.0851Q16.8802 14.2233 16.6758 14.3853Q16.1335 14.815 15.0583 15.174Q13.9022 15.5599 12.3764 15.7744Q10.7718 16 9 16Q7.2282 16 5.62359 15.7744Q4.09778 15.5599 2.94167 15.174Q1.86647 14.815 1.32419 14.3853Q1.1198 14.2233 1.03558 14.0851Q1 14.0267 1 14L1 0C1 -0.55228 0.55228 -1 0 -1Z" fill-rule="evenodd" transform="matrix(1 0 0 1 3 5)" fill="rgb(37, 99, 235)"/>
	</g>
</svg>
