<?xml version="1.0" encoding="utf-8" ?>
<svg xmlns="http://www.w3.org/2000/svg" xmlns:xlink="http://www.w3.org/1999/xlink" width="36" height="36" viewBox="0 0 36 36">
	<defs>
		<clipPath id="clipPath0376986751">
			<path d="M0 0L36 0L36 36L0 36L0 0Z" fill-rule="nonzero" transform="matrix(1 0 0 1 0 0)"/>
		</clipPath>
	</defs>
	<g clip-path="url(#clipPath0376986751)">
		<path d="M7.16322 1.11359L3.82338 6.42218C3.75506 6.51687 3.67962 6.60549 3.59706 6.68805C3.5145 6.77061 3.42587 6.84605 3.33119 6.91437C2.85548 7.24623 2.33182 7.36289 1.76023 7.26435C1.18863 7.16581 0.734263 6.88055 0.39713 6.40856C0.0599942 5.93657 -0.0624876 5.41425 0.0296845 4.84159C0.121855 4.26893 0.402045 3.81142 0.870253 3.46906L6.17885 0.129214C6.30243 0.0430713 6.43954 0 6.59018 0C6.74082 0 6.87793 0.0430713 7.0015 0.129214C7.15925 0.243105 7.2539 0.396047 7.28544 0.588039C7.31698 0.780031 7.27624 0.955214 7.16322 1.11359Z" fill-rule="nonzero" transform="matrix(1 0 0 1 15.7657 15.1919)" fill="rgb(37, 99, 235)"/>
		<path d="M15.75 1.125Q12.7738 1.125 10.0577 2.27297Q7.43328 3.38222 5.40864 5.4056Q3.38389 7.42911 2.2739 10.0522Q1.12501 12.7673 1.12501 15.743Q1.1213 18.4237 2.07108 20.9289Q3.02085 23.4341 4.79981 25.4374Q4.82073 25.46 4.87829 25.5248Q4.95216 25.608 4.97911 25.635Q4.99488 25.6507 5.01001 25.6671Q5.20259 25.8756 5.48642 25.8749Q5.77025 25.8741 5.9617 25.6646Q9.91525 21.3681 15.75 21.3681Q21.5848 21.3681 25.5357 25.6617Q25.7298 25.8741 26.0136 25.8749Q26.2974 25.8756 26.49 25.6671L26.7111 25.4253Q28.4792 23.4341 29.429 20.9289Q30.3787 18.4237 30.375 15.7445Q30.375 12.7673 29.2261 10.0522Q28.1161 7.42912 26.0914 5.4056Q24.0668 3.38222 21.4423 2.27297Q18.7262 1.125 15.75 1.125L15.75 1.125ZM15.75 -1.125Q19.1822 -1.125 22.3182 0.200485Q25.3469 1.48056 27.6819 3.81412Q30.0172 6.14798 31.2982 9.17539Q32.625 12.3108 32.625 15.7414Q32.6293 18.8344 31.5328 21.7265Q30.4364 24.6186 28.3717 26.9435L28.1428 27.1938Q27.2797 28.1283 26.0075 28.1248Q24.7354 28.1214 23.88 27.1852Q20.5976 23.6181 15.75 23.6181Q10.9025 23.6181 7.62271 27.1823Q6.7646 28.1214 5.49248 28.1248Q4.22037 28.1283 3.35721 27.1938L4.18361 26.4305L3.38811 27.226Q3.31394 27.1518 3.19572 27.0186Q3.15005 26.9672 3.11741 26.9314Q1.06367 24.6186 -0.0327984 21.7265Q-1.12927 18.8344 -1.12499 15.743Q-1.12499 12.3108 0.201786 9.17539Q1.48286 6.14797 3.81814 3.81412Q6.15315 1.48056 9.18178 0.200487Q12.3179 -1.125 15.75 -1.125L15.75 -1.125Z" fill-rule="nonzero" transform="matrix(1 0 0 1 2.24998 4.5)" fill="rgb(37, 99, 235)"/>
		<path d="M10.125 0C10.125 -0.621315 10.6287 -1.125 11.25 -1.125C11.8713 -1.125 12.375 -0.621315 12.375 0L12.375 2.25C12.375 2.87132 11.8713 3.375 11.25 3.375C10.6287 3.375 10.125 2.87132 10.125 2.25L10.125 0ZM2.49935 4.09034C2.06001 3.651 2.06001 2.93868 2.49935 2.49935C2.93868 2.06001 3.651 2.06001 4.09034 2.49935L5.68151 4.09052C6.12085 4.52986 6.12085 5.24217 5.68151 5.68151C5.24217 6.12085 4.52986 6.12085 4.09052 5.68151L2.49935 4.09034ZM18.4097 2.49935C18.849 2.06001 19.5613 2.06001 20.0006 2.49935C20.44 2.93868 20.44 3.651 20.0007 4.09034L18.4095 5.68151C17.9701 6.12085 17.2578 6.12085 16.8185 5.68151C16.3792 5.24217 16.3792 4.52986 16.8185 4.09052L18.4097 2.49935ZM0 12.375C-0.621315 12.375 -1.125 11.8713 -1.125 11.25C-1.125 10.6287 -0.621315 10.125 0 10.125L2.25 10.125C2.87132 10.125 3.375 10.6287 3.375 11.25C3.375 11.8713 2.87132 12.375 2.25 12.375L0 12.375ZM20.25 12.375C19.6287 12.375 19.125 11.8713 19.125 11.25C19.125 10.6287 19.6287 10.125 20.25 10.125L22.5 10.125C23.1213 10.125 23.625 10.6287 23.625 11.25C23.625 11.8713 23.1213 12.375 22.5 12.375L20.25 12.375Z" fill-rule="evenodd" transform="matrix(1 0 0 1 6.75 9)" fill="rgb(37, 99, 235)"/>
	</g>
</svg>
