<?xml version="1.0" encoding="utf-8" ?>
<svg xmlns="http://www.w3.org/2000/svg" xmlns:xlink="http://www.w3.org/1999/xlink" width="36" height="36" viewBox="0 0 36 36">
	<defs>
		<clipPath id="clipPath7727247258">
			<path d="M0 0L36 0L36 36L0 36L0 0Z" fill-rule="nonzero" transform="matrix(1 0 0 1 0 0)"/>
		</clipPath>
	</defs>
	<g clip-path="url(#clipPath7727247258)">
		<path d="M23.4 18L26.1 18C26.55 18 27 17.55 27 17.1L27 7.65C27 7.2 26.55 6.75 26.1 6.75L23.4 6.75C22.95 6.75 22.5 7.2 22.5 7.65L22.5 17.1C22.5 17.55 22.95 18 23.4 18ZM30.15 18L32.85 18C33.3 18 33.75 17.55 33.75 17.1L33.75 0.9C33.75 0.45 33.3 0 32.85 0L30.15 0C29.7 0 29.25 0.45 29.25 0.9L29.25 17.1C29.25 17.55 29.7 18 30.15 18ZM9.9 18L12.6 18C13.05 18 13.5 17.55 13.5 17.1L13.5 12.15C13.5 11.7 13.05 11.25 12.6 11.25L9.9 11.25C9.45 11.25 9 11.7 9 12.15L9 17.1C9 17.55 9.45 18 9.9 18ZM16.65 18L19.35 18C19.8 18 20.25 17.55 20.25 17.1L20.25 3.15C20.25 2.7 19.8 2.25 19.35 2.25L16.65 2.25C16.2 2.25 15.75 2.7 15.75 3.15L15.75 17.1C15.75 17.55 16.2 18 16.65 18ZM34.875 22.5L4.5 22.5L4.5 1.125C4.5 0.503438 3.99656 0 3.375 0L1.125 0C0.503438 0 0 0.503438 0 1.125L0 24.75C0 25.9924 1.00758 27 2.25 27L34.875 27C35.4966 27 36 26.4966 36 25.875L36 23.625C36 23.0034 35.4966 22.5 34.875 22.5Z" fill-rule="nonzero" transform="matrix(1 0 0 1 0 4.5)" fill="rgb(37, 99, 235)"/>
	</g>
</svg>
