<?xml version="1.0" encoding="utf-8" ?>
<svg xmlns="http://www.w3.org/2000/svg" xmlns:xlink="http://www.w3.org/1999/xlink" width="36" height="36" viewBox="0 0 36 36">
	<defs>
		<clipPath id="clipPath9471729454">
			<path d="M0 0L36 0L36 36L0 36L0 0Z" fill-rule="nonzero" transform="matrix(1 0 0 1 0 0)"/>
		</clipPath>
	</defs>
	<g clip-path="url(#clipPath9471729454)">
		<path d="M11.9863 -0.850589C11.5165 -1.25723 10.806 -1.20605 10.3994 -0.736291L3.39192 7.35901L0.787286 4.80732C0.343463 4.37251 -0.368818 4.37983 -0.80362 4.82365C-1.23842 5.26747 -1.23111 5.97976 -0.787286 6.41456L2.67209 9.80362Q2.69686 9.82789 2.72308 9.85059Q2.89228 9.99705 3.10464 10.0676Q3.317 10.1382 3.5402 10.1221Q3.76339 10.106 3.96345 10.0057Q4.16351 9.90548 4.30996 9.73629L12.1006 0.736291C12.5072 0.266527 12.4561 -0.44395 11.9863 -0.850589Z" fill-rule="evenodd" transform="matrix(1 0 0 1 12.375 12.375)" fill="rgb(37, 99, 235)"/>
		<path d="M28.988 5.63334Q26.5269 5.19186 24.8072 4.80037Q22.9477 4.37702 21.3407 3.87498Q19.751 3.37836 17.9921 2.67424Q16.4169 2.0437 14.1619 1.02529L14.6249 0L15.088 1.02529Q12.833 2.04369 11.2578 2.67424Q9.49886 3.37836 7.90921 3.87498Q6.30221 4.37702 4.44265 4.80037Q2.72301 5.19186 0.26185 5.63334L0.0632199 4.52602L1.18599 4.59686Q0.808832 10.5745 2.75287 15.5334Q4.3195 19.5296 7.32903 22.7227Q9.53934 25.0678 12.3225 26.7838Q13.2433 27.3516 14.1394 27.794Q14.6619 28.0521 15.0452 28.2064L14.6249 29.25L14.2047 28.2064Q14.588 28.0521 15.1105 27.794Q16.0066 27.3516 16.9274 26.7838Q19.7105 25.0678 21.9209 22.7227Q24.9304 19.5296 26.497 15.5334Q28.441 10.5746 28.0639 4.59686L29.1867 4.52602L28.988 5.63334ZM29.3853 3.41869Q29.4776 3.43524 29.5658 3.46684Q29.6541 3.49844 29.7359 3.54421Q29.8177 3.58999 29.8909 3.64867Q29.964 3.70736 30.0264 3.77733Q30.0888 3.84731 30.1387 3.92665Q30.1886 4.00599 30.2248 4.0925Q30.2609 4.17902 30.2822 4.27032Q30.3035 4.36161 30.3094 4.45518Q30.718 10.931 28.5918 16.3546Q26.8663 20.7561 23.5582 24.2659Q21.1442 26.8272 18.1082 28.699Q16.4203 29.7398 15.0452 30.2936Q14.843 30.375 14.6249 30.375Q14.4069 30.375 14.2047 30.2936Q12.8296 29.7398 11.1417 28.699Q8.10567 26.8272 5.69167 24.2659Q2.38359 20.7561 0.658089 16.3546Q-1.46813 10.931 -1.05955 4.45518Q-1.05364 4.36161 -1.03233 4.27031Q-1.01103 4.17901 -0.974898 4.0925Q-0.938771 4.00599 -0.888822 3.92665Q-0.838874 3.84731 -0.776482 3.77733Q-0.71409 3.70736 -0.640976 3.64867Q-0.567862 3.58999 -0.486043 3.54421Q-0.404224 3.49844 -0.315957 3.46684Q-0.22769 3.43524 -0.13541 3.41869Q2.27438 2.98643 3.9432 2.6065Q5.7161 2.20288 7.23827 1.72734Q8.74415 1.25689 10.4216 0.585385Q11.9514 -0.0269985 14.1619 -1.02529Q14.271 -1.07458 14.3881 -1.09979Q14.5052 -1.125 14.6249 -1.125Q14.7447 -1.125 14.8618 -1.09979Q14.9788 -1.07458 15.088 -1.02529Q17.2985 -0.0269964 18.8282 0.585385Q20.5057 1.25689 22.0116 1.72734Q23.5338 2.20289 25.3067 2.6065Q26.9755 2.98643 29.3853 3.41869Z" fill-rule="nonzero" transform="matrix(1 0 0 1 3.37506 3.375)" fill="rgb(37, 99, 235)"/>
	</g>
</svg>
