<?xml version="1.0" encoding="utf-8" ?>
<svg xmlns="http://www.w3.org/2000/svg" xmlns:xlink="http://www.w3.org/1999/xlink" width="36" height="36" viewBox="0 0 36 36">
	<defs>
		<clipPath id="clipPath3358378108">
			<path d="M0 0L36 0L36 36L0 36L0 0Z" fill-rule="nonzero" transform="matrix(1 0 0 1 0 0)"/>
		</clipPath>
	</defs>
	<g clip-path="url(#clipPath3358378108)">
		<path d="M27.0293 15.0535Q27.0269 15.4583 26.9972 15.8622Q26.9917 15.9366 26.9853 16.0111L29.6698 18.1168Q29.6818 18.1261 29.6935 18.1358Q30.2252 18.5766 30.3463 19.2565Q30.4675 19.9363 30.1207 20.5336L27.1146 25.7348Q26.7575 26.3371 26.1084 26.5638Q25.4594 26.7905 24.8168 26.5462L21.6397 25.2681Q21.6378 25.2683 21.6362 25.2694Q21.2345 25.546 20.8184 25.7882Q20.4038 26.0296 19.9722 26.239L19.4991 29.6055Q19.4965 29.6242 19.4933 29.6427Q19.3758 30.3149 18.858 30.7595Q18.3402 31.2041 17.6579 31.2185L11.6196 31.2188Q10.931 31.207 10.4159 30.7796Q9.90086 30.3523 9.76602 29.6967Q9.75885 29.6619 9.7539 29.6266L9.28104 26.2659Q9.2803 26.2649 9.27918 26.2643Q8.83861 26.0517 8.42187 25.8076Q8.00618 25.5641 7.61122 25.2882L4.45508 26.5586Q3.79305 26.8109 3.14404 26.5847Q2.49506 26.3585 2.14396 25.7677L-0.870201 20.5528Q-1.21616 19.958 -1.09492 19.2775Q-0.973671 18.597 -0.441189 18.1564Q-0.430038 18.1471 -0.418652 18.1382L2.26458 16.0295Q2.21881 15.4998 2.21881 15.0448Q2.21881 14.5784 2.26359 14.0815L-0.422393 11.9716Q-0.438345 11.959 -0.453835 11.9459Q-0.977098 11.5035 -1.09407 10.8283Q-1.21105 10.1531 -0.867119 9.56037L2.13917 4.35892Q2.49625 3.75668 3.1453 3.52996Q3.79434 3.30324 4.43695 3.5476L7.61403 4.82569Q7.61596 4.82547 7.61756 4.82435Q8.01923 4.54774 8.4353 4.30551Q8.84987 4.06416 9.2815 3.85478L9.75461 0.488207Q9.75722 0.469599 9.76046 0.451089Q9.87794 -0.221164 10.3957 -0.665732Q10.9135 -1.1103 11.5958 -1.12475L17.6341 -1.125Q18.3228 -1.11325 18.8378 -0.685886Q19.3529 -0.258526 19.4877 0.39703Q19.4949 0.431882 19.4998 0.467117L19.9727 3.82789Q19.9734 3.82888 19.9745 3.82941Q20.4151 4.04205 20.8319 4.28616Q21.2476 4.52968 21.6425 4.8056L24.7986 3.53513Q25.4607 3.28281 26.1097 3.50902Q26.7587 3.73523 27.1098 4.32607L30.1239 9.54095Q30.4699 10.1358 30.3486 10.8162Q30.2274 11.4967 29.6949 11.9374Q29.6838 11.9466 29.6724 11.9556L26.9859 14.0669Q27.0293 14.6104 27.0293 15.0469L27.0293 15.0535ZM24.7793 15.0436Q24.7791 14.6979 24.7454 14.2733Q24.6928 13.703 24.9189 13.1769Q25.145 12.6508 25.5963 12.2952L28.0181 10.3938L25.3318 5.74595L22.4823 6.893Q21.9546 7.10528 21.3895 7.04133Q20.8243 6.97737 20.3555 6.65115Q20.0336 6.42614 19.6947 6.22763Q19.3558 6.02912 19.0076 5.86106Q18.4966 5.61786 18.161 5.16218Q17.8254 4.70651 17.7442 4.14257L17.3202 1.12499L11.9373 1.12476L11.5097 4.16705Q11.4323 4.72328 11.1023 5.17762Q10.7722 5.63195 10.266 5.87796Q9.90961 6.05072 9.56732 6.25Q9.22502 6.44927 8.90397 6.67033Q8.43714 6.99566 7.87188 7.06087Q7.30662 7.12607 6.77391 6.91396L3.92448 5.76637L1.23792 10.4146L3.652 12.311Q4.09949 12.6619 4.32652 13.1833Q4.55355 13.7046 4.505 14.278Q4.46881 14.677 4.46881 15.0448Q4.46881 15.4028 4.50461 15.8179Q4.55838 16.3872 4.33421 16.9132Q4.11004 17.4393 3.65745 17.7985L1.23566 19.7L3.92189 24.3478L6.77141 23.2008Q7.29906 22.9885 7.86423 23.0524Q8.42939 23.1164 8.89824 23.4426Q9.22015 23.6676 9.55907 23.8661Q9.89799 24.0646 10.2461 24.2327Q10.7571 24.4759 11.0927 24.9316Q11.4283 25.3872 11.5095 25.9512L11.9336 28.9688L17.3165 28.969L17.744 25.9267Q17.8214 25.3705 18.1515 24.9161Q18.4815 24.4618 18.9877 24.2158Q19.3441 24.043 19.6864 23.8437Q20.0287 23.6445 20.3498 23.4234Q20.8166 23.0981 21.3818 23.0329Q21.9471 22.9677 22.4798 23.1798L25.3292 24.3274L28.0159 19.679L25.1024 17.3939Q24.9859 17.3025 24.897 17.1841Q24.8082 17.0657 24.7529 16.9284Q24.6977 16.791 24.6799 16.6441Q24.6621 16.4971 24.6829 16.3505Q24.7291 16.025 24.7532 15.697Q24.7771 15.3724 24.7793 15.0469L24.7793 15.0436ZM18.6024 11.0713Q17.1813 9.65016 15.1816 9.4493L15.1797 9.44912Q12.7527 9.20942 10.9188 10.8171Q9.08489 12.4248 9.00488 14.8623Q8.92487 17.2999 10.6494 19.0244Q12.3739 20.7489 14.8114 20.6689Q17.2489 20.5888 18.8566 18.755Q20.4643 16.9211 20.2246 14.494Q20.0236 12.4924 18.6024 11.0713ZM14.9567 11.688L14.9586 11.6882Q16.1585 11.8093 17.0114 12.6623Q17.8651 13.5159 17.9855 14.7152Q18.1293 16.1714 17.1647 17.2717Q16.2001 18.3721 14.7376 18.4201Q13.2751 18.4681 12.2404 17.4334Q11.2057 16.3987 11.2537 14.9362Q11.3017 13.4736 12.402 12.509Q13.5016 11.545 14.9567 11.688Z" fill-rule="evenodd" transform="matrix(1 0 0 1 3.37314 2.95312)" fill="rgb(37, 99, 235)"/>
	</g>
</svg>
