<?xml version="1.0" encoding="utf-8" ?>
<svg xmlns="http://www.w3.org/2000/svg" xmlns:xlink="http://www.w3.org/1999/xlink" width="36" height="36" viewBox="0 0 36 36">
	<defs>
		<clipPath id="clipPath7288686810">
			<path d="M0 0L36 0L36 36L0 36L0 0Z" fill-rule="nonzero" transform="matrix(1 0 0 1 0 0)"/>
		</clipPath>
	</defs>
	<g clip-path="url(#clipPath7288686810)">
		<path d="M19.125 0L3.375 0C1.51172 0 0 1.51172 0 3.375L0 32.625C0 34.4883 1.51172 36 3.375 36L19.125 36C20.9883 36 22.5 34.4883 22.5 32.625L22.5 3.375C22.5 1.51172 20.9883 0 19.125 0ZM11.25 33.75C10.0055 33.75 9 32.7445 9 31.5C9 30.2555 10.0055 29.25 11.25 29.25C12.4945 29.25 13.5 30.2555 13.5 31.5C13.5 32.7445 12.4945 33.75 11.25 33.75ZM19.125 26.1562C19.125 26.6203 18.7453 27 18.2812 27L4.21875 27C3.75469 27 3.375 26.6203 3.375 26.1562L3.375 4.21875C3.375 3.75469 3.75469 3.375 4.21875 3.375L18.2812 3.375C18.7453 3.375 19.125 3.75469 19.125 4.21875L19.125 26.1562Z" fill-rule="nonzero" transform="matrix(1 0 0 1 6.75 0)" fill="rgb(37, 99, 235)"/>
	</g>
</svg>
