<?xml version="1.0" encoding="utf-8" ?>
<svg xmlns="http://www.w3.org/2000/svg" xmlns:xlink="http://www.w3.org/1999/xlink" width="36" height="36" viewBox="0 0 36 36">
	<defs>
		<clipPath id="clipPath2967889121">
			<path d="M0 0L36 0L36 36L0 36L0 0Z" fill-rule="nonzero" transform="matrix(1 0 0 1 0 0)"/>
		</clipPath>
	</defs>
	<g clip-path="url(#clipPath2967889121)">
		<path d="M10.6193 1.19324C9.96025 0.534239 9.96025 -0.534238 10.6193 -1.19324C11.2783 -1.85225 12.3467 -1.85225 13.0057 -1.19324L23.1307 8.93176Q23.1894 8.99038 23.242 9.05446Q23.2945 9.11855 23.3406 9.18748Q23.3867 9.2564 23.4257 9.32952Q23.4648 9.40263 23.4965 9.47922Q23.5283 9.55581 23.5523 9.63514Q23.5764 9.71448 23.5926 9.79578Q23.6087 9.87709 23.6169 9.9596Q23.625 10.0421 23.625 10.125Q23.625 10.2079 23.6169 10.2904Q23.6087 10.3729 23.5926 10.4542Q23.5764 10.5355 23.5523 10.6149Q23.5283 10.6942 23.4965 10.7708Q23.4648 10.8474 23.4257 10.9205Q23.3867 10.9936 23.3406 11.0625Q23.2945 11.1315 23.242 11.1955Q23.1894 11.2596 23.1307 11.3182L13.0057 21.4432C12.3467 22.1022 11.2783 22.1022 10.6193 21.4432C9.96025 20.7842 9.96025 19.7158 10.6193 19.0568L17.8635 11.8125L0 11.8125C-0.931973 11.8125 -1.6875 11.057 -1.6875 10.125C-1.6875 9.19303 -0.931973 8.4375 0 8.4375L17.8635 8.4375L10.6193 1.19324Z" fill-rule="evenodd" transform="matrix(1 0 0 1 7.03125 7.875)" fill="rgb(37, 99, 235)"/>
	</g>
</svg>
