<?xml version="1.0" encoding="utf-8" ?>
<svg xmlns="http://www.w3.org/2000/svg" xmlns:xlink="http://www.w3.org/1999/xlink" width="36" height="36" viewBox="0 0 36 36">
	<defs>
		<clipPath id="clipPath1195772279">
			<path d="M0 0L36 0L36 36L0 36L0 0Z" fill-rule="nonzero" transform="matrix(1 0 0 1 0 0)"/>
		</clipPath>
	</defs>
	<g clip-path="url(#clipPath1195772279)">
		<path d="M9.81629 0.248165C9.65142 0.0827217 9.4522 0 9.21863 0C8.98507 0 8.78585 0.0827217 8.62098 0.248165L4.14348 4.69965L2.54738 3.14434C2.38251 2.97889 2.1833 2.89617 1.94973 2.89617C1.71616 2.89617 1.51694 2.97889 1.35207 3.14434L0.248166 4.24965C0.0827223 4.41452 5.53206e-07 4.61374 5.53206e-07 4.84731C5.53206e-07 5.08087 0.0827223 5.28009 0.248166 5.44496L3.59434 8.77777C3.76778 8.94264 3.97414 9.02507 4.21344 9.02508C4.45273 9.02507 4.6591 8.94264 4.83254 8.77777L5.92871 7.67949L11.0053 2.60363C11.1699 2.43891 11.2528 2.24013 11.254 2.00728C11.2552 1.77443 11.1744 1.57477 11.0116 1.40832L9.81629 0.248165ZM9.81629 11.4412C9.65142 11.2758 9.4522 11.193 9.21864 11.193C8.98507 11.193 8.78585 11.2758 8.62098 11.4412L4.14348 15.9215L2.54738 14.3676C2.38251 14.2022 2.1833 14.1195 1.94973 14.1195C1.71616 14.1195 1.51694 14.2022 1.35207 14.3676L0.248166 15.4708C0.082722 15.6357 0 15.8349 0 16.0685C0 16.302 0.082722 16.5013 0.248166 16.6661L3.5859 20.006C3.75922 20.1708 3.96547 20.2532 4.20465 20.2532C4.44383 20.2532 4.65008 20.1708 4.8234 20.006L5.92731 18.9028L11.0039 13.8248C11.1679 13.6612 11.2505 13.4636 11.2517 13.232C11.2529 13.0003 11.1724 12.8019 11.0102 12.6365L9.81629 11.4412ZM4.49996 23.6271C2.63738 23.6271 1.08348 25.1388 1.08348 27.0021C1.08348 28.8654 2.63879 30.3771 4.49996 30.3771C5.43194 30.3771 6.22744 30.0476 6.88645 29.3886C7.54546 28.7295 7.87496 27.9341 7.87496 27.0021C7.87496 26.0701 7.54546 25.2746 6.88645 24.6156C6.22744 23.9566 5.43194 23.6271 4.49996 23.6271ZM34.875 24.7521L14.625 24.7521C14.3143 24.7521 14.0491 24.8619 13.8295 25.0816C13.6098 25.3012 13.5 25.5664 13.5 25.8771L13.5 28.1271C13.5 28.4377 13.6098 28.7029 13.8295 28.9226C14.0491 29.1422 14.3143 29.2521 14.625 29.2521L34.875 29.2521C35.1856 29.2521 35.4508 29.1422 35.6705 28.9226C35.8901 28.7029 36 28.4377 36 28.1271L36 25.8771C36 25.5664 35.8901 25.3012 35.6705 25.0816C35.4508 24.8619 35.1856 24.7521 34.875 24.7521ZM34.875 2.25207L14.625 2.25207C14.3143 2.25207 14.0491 2.36191 13.8295 2.58158C13.6098 2.80125 13.5 3.06641 13.5 3.37707L13.5 5.62707C13.5 5.93773 13.6098 6.2029 13.8295 6.42257C14.0491 6.64224 14.3143 6.75207 14.625 6.75207L34.875 6.75207C35.1856 6.75207 35.4508 6.64224 35.6705 6.42257C35.8901 6.2029 36 5.93773 36 5.62707L36 3.37707C36 3.06641 35.8901 2.80125 35.6705 2.58158C35.4508 2.36191 35.1856 2.25207 34.875 2.25207ZM34.875 13.5021L14.625 13.5021C14.3143 13.5021 14.0491 13.6119 13.8295 13.8316C13.6098 14.0512 13.5 14.3164 13.5 14.6271L13.5 16.8771C13.5 17.1877 13.6098 17.4529 13.8295 17.6726C14.0491 17.8922 14.3143 18.0021 14.625 18.0021L34.875 18.0021C35.1856 18.0021 35.4508 17.8922 35.6705 17.6726C35.8901 17.4529 36 17.1877 36 16.8771L36 14.6271C36 14.3164 35.8901 14.0512 35.6705 13.8316C35.4508 13.6119 35.1856 13.5021 34.875 13.5021Z" fill-rule="nonzero" transform="matrix(1 0 0 1 3.71821e-05 2.24793)" fill="rgb(37, 99, 235)"/>
	</g>
</svg>
