<?xml version="1.0" encoding="utf-8" ?>
<svg xmlns="http://www.w3.org/2000/svg" xmlns:xlink="http://www.w3.org/1999/xlink" width="36" height="36" viewBox="0 0 36 36">
	<defs>
		<clipPath id="clipPath8646092731">
			<path d="M0 0L36 0L36 36L0 36L0 0Z" fill-rule="nonzero" transform="matrix(1 0 0 1 0 0)"/>
		</clipPath>
	</defs>
	<g clip-path="url(#clipPath8646092731)">
		<path d="M23.625 12.1816L23.625 25.875Q23.625 27.739 22.307 29.057Q20.989 30.375 19.125 30.375L3.375 30.375Q1.51104 30.375 0.193019 29.057Q-1.125 27.739 -1.125 25.875L-1.125 3.375Q-1.125 1.51104 0.193019 0.19302Q1.51104 -1.125 3.375 -1.125L10.3184 -1.125Q10.9896 -1.1249 11.6096 -0.868069Q12.2296 -0.61124 12.7042 -0.136757L22.6367 9.79568Q23.1112 10.2704 23.3681 10.8904Q23.6249 11.5104 23.625 12.1815L23.625 12.1816ZM21.375 12.1818Q21.375 11.9581 21.2894 11.7514Q21.2037 11.5448 21.0457 11.3867L11.1134 1.45441Q10.9552 1.29625 10.7486 1.21064Q10.5419 1.12503 10.3184 1.125L3.375 1.125Q2.44302 1.125 1.78401 1.78401Q1.125 2.44302 1.125 3.375L1.125 25.875Q1.125 26.807 1.78401 27.466Q2.44302 28.125 3.375 28.125L19.125 28.125Q20.057 28.125 20.716 27.466Q21.375 26.807 21.375 25.875L21.375 12.1816L21.375 12.1818Z" fill-rule="nonzero" transform="matrix(1 0 0 1 6.75 3.375)" fill="rgb(37, 99, 235)"/>
		<path d="M5.625 -1.125C5.00368 -1.125 4.5 -0.621315 4.5 0L4.5 8.4375Q4.5 9.83547 5.48851 10.824Q6.47703 11.8125 7.875 11.8125L16.3125 11.8125C16.9338 11.8125 17.4375 11.3088 17.4375 10.6875C17.4375 10.0662 16.9338 9.5625 16.3125 9.5625L7.875 9.5625Q7.40901 9.5625 7.0795 9.233Q6.75 8.90349 6.75 8.4375L6.75 0C6.75 -0.621315 6.24632 -1.125 5.625 -1.125ZM-1.125 16.3125C-1.125 16.9338 -0.621315 17.4375 0 17.4375L11.25 17.4375C11.8713 17.4375 12.375 16.9338 12.375 16.3125C12.375 15.6912 11.8713 15.1875 11.25 15.1875L0 15.1875C-0.621315 15.1875 -1.125 15.6912 -1.125 16.3125ZM-1.125 21.9375C-1.125 22.5588 -0.621315 23.0625 0 23.0625L11.25 23.0625C11.8713 23.0625 12.375 22.5588 12.375 21.9375C12.375 21.3162 11.8713 20.8125 11.25 20.8125L0 20.8125C-0.621315 20.8125 -1.125 21.3162 -1.125 21.9375Z" fill-rule="evenodd" transform="matrix(1 0 0 1 12.375 3.9375)" fill="rgb(37, 99, 235)"/>
	</g>
</svg>
