<?xml version="1.0" encoding="utf-8" ?>
<svg xmlns="http://www.w3.org/2000/svg" xmlns:xlink="http://www.w3.org/1999/xlink" width="36" height="36" viewBox="0 0 36 36">
	<defs>
		<clipPath id="clipPath9604946022">
			<path d="M0 0L36 0L36 36L0 36L0 0Z" fill-rule="nonzero" transform="matrix(1 0 0 1 0 0)"/>
		</clipPath>
	</defs>
	<g clip-path="url(#clipPath9604946022)">
		<path d="M11.0454 1.125Q6.93623 1.125 4.03061 4.03061Q1.125 6.93623 1.125 11.0454Q1.125 15.1545 4.03061 18.0602Q6.93623 20.9658 11.0454 20.9658Q15.1546 20.9658 18.0602 18.0602Q20.9658 15.1545 20.9658 11.0454Q20.9655 6.93638 18.06 4.03082Q15.1544 1.12526 11.0453 1.125L11.0454 1.125ZM11.0455 -1.125Q16.0864 -1.12468 19.6509 2.43983Q23.2155 6.00434 23.2158 11.0454Q23.2158 16.0865 19.6512 19.6512Q16.0865 23.2158 11.0454 23.2158Q6.00425 23.2158 2.43962 19.6512Q-1.125 16.0865 -1.125 11.0454Q-1.125 6.00425 2.43962 2.43962Q6.00425 -1.125 11.0454 -1.125L11.0455 -1.125Z" fill-rule="nonzero" transform="matrix(1 0 0 1 4.5 4.5)" fill="rgb(37, 99, 235)"/>
		<path d="M-0.795495 -0.795495C-1.23483 -0.356159 -1.23483 0.356159 -0.795495 0.795495L6.91849 8.50948C7.35782 8.94881 8.07014 8.94881 8.50948 8.50948C8.94881 8.07014 8.94881 7.35782 8.50948 6.91849L0.795495 -0.795495C0.356159 -1.23483 -0.356159 -1.23483 -0.795495 -0.795495Z" fill-rule="evenodd" transform="matrix(1 0 0 1 23.786 23.786)" fill="rgb(37, 99, 235)"/>
	</g>
</svg>
