<?xml version="1.0" encoding="utf-8" ?>
<svg xmlns="http://www.w3.org/2000/svg" xmlns:xlink="http://www.w3.org/1999/xlink" width="36" height="36" viewBox="0 0 36 36">
	<defs>
		<clipPath id="clipPath8769494689">
			<path d="M0 0L36 0L36 36L0 36L0 0Z" fill-rule="nonzero" transform="matrix(1 0 0 1 0 0)"/>
		</clipPath>
	</defs>
	<g clip-path="url(#clipPath8769494689)">
		<path d="M10.4062 20.25L7.59375 20.25C7.12969 20.25 6.75 19.8703 6.75 19.4062L6.75 16.5938C6.75 16.1297 7.12969 15.75 7.59375 15.75L10.4062 15.75C10.8703 15.75 11.25 16.1297 11.25 16.5938L11.25 19.4062C11.25 19.8703 10.8703 20.25 10.4062 20.25ZM18 19.4062L18 16.5938C18 16.1297 17.6203 15.75 17.1562 15.75L14.3438 15.75C13.8797 15.75 13.5 16.1297 13.5 16.5938L13.5 19.4062C13.5 19.8703 13.8797 20.25 14.3438 20.25L17.1562 20.25C17.6203 20.25 18 19.8703 18 19.4062ZM24.75 19.4062L24.75 16.5938C24.75 16.1297 24.3703 15.75 23.9062 15.75L21.0938 15.75C20.6297 15.75 20.25 16.1297 20.25 16.5938L20.25 19.4062C20.25 19.8703 20.6297 20.25 21.0938 20.25L23.9062 20.25C24.3703 20.25 24.75 19.8703 24.75 19.4062ZM18 26.1562L18 23.3438C18 22.8797 17.6203 22.5 17.1562 22.5L14.3438 22.5C13.8797 22.5 13.5 22.8797 13.5 23.3438L13.5 26.1562C13.5 26.6203 13.8797 27 14.3438 27L17.1562 27C17.6203 27 18 26.6203 18 26.1562ZM11.25 26.1562L11.25 23.3438C11.25 22.8797 10.8703 22.5 10.4062 22.5L7.59375 22.5C7.12969 22.5 6.75 22.8797 6.75 23.3438L6.75 26.1562C6.75 26.6203 7.12969 27 7.59375 27L10.4062 27C10.8703 27 11.25 26.6203 11.25 26.1562ZM24.75 26.1562L24.75 23.3438C24.75 22.8797 24.3703 22.5 23.9062 22.5L21.0938 22.5C20.6297 22.5 20.25 22.8797 20.25 23.3438L20.25 26.1562C20.25 26.6203 20.6297 27 21.0938 27L23.9062 27C24.3703 27 24.75 26.6203 24.75 26.1562ZM31.5 7.875L31.5 32.625C31.5 34.4883 29.9883 36 28.125 36L3.375 36C1.51172 36 0 34.4883 0 32.625L0 7.875C0 6.01172 1.51172 4.5 3.375 4.5L6.75 4.5L6.75 0.84375C6.75 0.379688 7.12969 0 7.59375 0L10.4062 0C10.8703 0 11.25 0.379688 11.25 0.84375L11.25 4.5L20.25 4.5L20.25 0.84375C20.25 0.379688 20.6297 0 21.0938 0L23.9062 0C24.3703 0 24.75 0.379688 24.75 0.84375L24.75 4.5L28.125 4.5C29.9883 4.5 31.5 6.01172 31.5 7.875ZM28.125 32.2031L28.125 11.25L3.375 11.25L3.375 32.2031C3.375 32.4352 3.56484 32.625 3.79688 32.625L27.7031 32.625C27.9352 32.625 28.125 32.4352 28.125 32.2031Z" fill-rule="nonzero" transform="matrix(1 0 0 1 2.25 0)" fill="rgb(37, 99, 235)"/>
	</g>
</svg>
