<?xml version="1.0" encoding="utf-8" ?>
<svg xmlns="http://www.w3.org/2000/svg" xmlns:xlink="http://www.w3.org/1999/xlink" width="36" height="28.8" viewBox="0 0 36 28.8">
	<defs>
		<clipPath id="clipPath1371527800">
			<path d="M0 0L36 0L36 28.8L0 28.8L0 0Z" fill-rule="nonzero" transform="matrix(1 0 0 1 0 0)"/>
		</clipPath>
	</defs>
	<g clip-path="url(#clipPath1371527800)">
		<path d="M10.8 10.08C14.2819 10.08 17.1 7.8255 17.1 5.04C17.1 2.2545 14.2819 0 10.8 0C7.31812 0 4.5 2.2545 4.5 5.04C4.5 7.8255 7.31812 10.08 10.8 10.08ZM15.12 11.52L14.6531 11.52C13.4831 11.97 12.1837 12.24 10.8 12.24C9.41625 12.24 8.1225 11.97 6.94687 11.52L6.48 11.52C2.9025 11.52 0 13.842 0 16.704L0 18C0 19.1925 1.20937 20.16 2.7 20.16L18.9 20.16C20.3906 20.16 21.6 19.1925 21.6 18L21.6 16.704C21.6 13.842 18.6975 11.52 15.12 11.52ZM27 10.08C29.9813 10.08 32.4 8.145 32.4 5.76C32.4 3.375 29.9813 1.44 27 1.44C24.0187 1.44 21.6 3.375 21.6 5.76C21.6 8.145 24.0187 10.08 27 10.08ZM29.7 11.52L29.4862 11.52C28.7044 11.736 27.8775 11.88 27 11.88C26.1225 11.88 25.2956 11.736 24.5137 11.52L24.3 11.52C23.1525 11.52 22.095 11.7855 21.1669 12.213C22.5394 13.3965 23.4 14.967 23.4 16.704L23.4 18.432C23.4 18.531 23.3719 18.6255 23.3662 18.72L33.3 18.72C34.7906 18.72 36 17.7525 36 16.56C36 13.7745 33.1819 11.52 29.7 11.52Z" fill-rule="nonzero" transform="matrix(1 0 0 1 0 4.32002)" fill="rgb(37, 99, 235)"/>
	</g>
</svg>
