<?xml version="1.0" encoding="utf-8" ?>
<svg xmlns="http://www.w3.org/2000/svg" xmlns:xlink="http://www.w3.org/1999/xlink" width="36" height="36" viewBox="0 0 36 36">
	<defs>
		<clipPath id="clipPath3203220859">
			<path d="M0 0L36 0L36 36L0 36L0 0Z" fill-rule="nonzero" transform="matrix(1 0 0 1 0 0)"/>
		</clipPath>
	</defs>
	<g clip-path="url(#clipPath3203220859)">
		<path d="M13.5 1.125Q10.9827 1.125 8.68473 2.09735Q6.46425 3.0369 4.75057 4.75057Q3.0369 6.46425 2.09735 8.68473Q1.125 10.9827 1.125 13.5Q1.125 16.0173 2.09735 18.3153Q3.0369 20.5357 4.75057 22.2494Q6.46425 23.9631 8.68473 24.9027Q10.9827 25.875 13.5 25.875Q16.0173 25.875 18.3153 24.9027Q20.5357 23.9631 22.2494 22.2494Q23.9631 20.5357 24.9027 18.3153Q25.875 16.0173 25.875 13.5Q25.875 10.9827 24.9027 8.68473Q23.9631 6.46425 22.2494 4.75057Q20.5357 3.0369 18.3153 2.09735Q16.0173 1.125 13.5 1.125ZM13.5 -1.125Q16.4737 -1.125 19.1921 0.0252106Q21.8165 1.13571 23.8404 3.15958Q25.8643 5.18345 26.9748 7.80795Q28.125 10.5263 28.125 13.5Q28.125 16.4737 26.9748 19.1921Q25.8643 21.8165 23.8404 23.8404Q21.8165 25.8643 19.1921 26.9748Q16.4737 28.125 13.5 28.125Q10.5263 28.125 7.80795 26.9748Q5.18345 25.8643 3.15958 23.8404Q1.13571 21.8165 0.0252106 19.1921Q-1.125 16.4737 -1.125 13.5Q-1.125 10.5263 0.0252106 7.80795Q1.13571 5.18346 3.15958 3.15958Q5.18346 1.13571 7.80795 0.0252106Q10.5263 -1.125 13.5 -1.125Z" fill-rule="nonzero" transform="matrix(1 0 0 1 4.5 4.5)" fill="rgb(37, 99, 235)"/>
		<path d="M0 -1.125C-0.621315 -1.125 -1.125 -0.621315 -1.125 0L-1.125 10.125Q-1.125 10.1803 -1.11958 10.2353Q-1.11417 10.2903 -1.10338 10.3445Q-1.0926 10.3987 -1.07656 10.4516Q-1.06051 10.5045 -1.03936 10.5555Q-1.01821 10.6066 -0.992161 10.6553Q-0.966108 10.7041 -0.935403 10.75Q-0.904698 10.796 -0.869637 10.8387Q-0.834575 10.8814 -0.795495 10.9205Q-0.756415 10.9596 -0.713692 10.9946Q-0.67097 11.0297 -0.625016 11.0604Q-0.579063 11.0911 -0.530321 11.1172Q-0.48158 11.1432 -0.430519 11.1644Q-0.379458 11.1855 -0.32657 11.2016Q-0.273682 11.2176 -0.219477 11.2284Q-0.165271 11.2392 -0.110269 11.2446Q-0.0552677 11.25 0 11.25L6.75 11.25C7.37132 11.25 7.875 10.7463 7.875 10.125C7.875 9.50368 7.37132 9 6.75 9L1.125 9L1.125 0C1.125 -0.621315 0.621315 -1.125 0 -1.125Z" fill-rule="evenodd" transform="matrix(1 0 0 1 18 9)" fill="rgb(37, 99, 235)"/>
	</g>
</svg>
